<svg width="209" height="60" viewBox="0 0 209 60" fill="none" xmlns="http://www.w3.org/2000/svg">
<path d="M13 15.92C15.96 15.92 18.5467 16.5067 20.76 17.68C22.9733 18.8533 24.68 20.5067 25.88 22.64C27.1067 24.7467 27.72 27.1867 27.72 29.96C27.72 32.7067 27.1067 35.1467 25.88 37.28C24.68 39.4133 22.96 41.0667 20.72 42.24C18.5067 43.4133 15.9333 44 13 44H2.48V15.92H13ZM12.56 38.08C15.1467 38.08 17.16 37.3733 18.6 35.96C20.04 34.5467 20.76 32.5467 20.76 29.96C20.76 27.3733 20.04 25.36 18.6 23.92C17.16 22.48 15.1467 21.76 12.56 21.76H9.32V38.08H12.56ZM48.7425 27.12V32.8H31.1425V27.12H48.7425ZM72.3456 15.92V35.04C72.3456 38 71.5056 40.28 69.8256 41.88C68.1723 43.48 65.9323 44.28 63.1056 44.28C60.1456 44.28 57.7723 43.44 55.9856 41.76C54.199 40.08 53.3056 37.6933 53.3056 34.6H60.1056C60.1056 35.7733 60.3456 36.6667 60.8256 37.28C61.3056 37.8667 61.999 38.16 62.9056 38.16C63.7323 38.16 64.3723 37.8933 64.8256 37.36C65.279 36.8267 65.5056 36.0533 65.5056 35.04V15.92H72.3456ZM84.5906 15.92V32.72C84.5906 34.4 85.004 35.6933 85.8306 36.6C86.6573 37.5067 87.8706 37.96 89.4706 37.96C91.0706 37.96 92.2973 37.5067 93.1506 36.6C94.004 35.6933 94.4306 34.4 94.4306 32.72V15.92H101.271V32.68C101.271 35.1867 100.737 37.3067 99.6706 39.04C98.604 40.7733 97.164 42.08 95.3506 42.96C93.564 43.84 91.564 44.28 89.3506 44.28C87.1373 44.28 85.1506 43.8533 83.3906 43C81.6573 42.12 80.284 40.8133 79.2706 39.08C78.2573 37.32 77.7506 35.1867 77.7506 32.68V15.92H84.5906ZM120.394 44L114.554 33.4H112.914V44H106.074V15.92H117.554C119.767 15.92 121.647 16.3067 123.194 17.08C124.767 17.8533 125.94 18.92 126.714 20.28C127.487 21.6133 127.874 23.1067 127.874 24.76C127.874 26.6267 127.34 28.2933 126.274 29.76C125.234 31.2267 123.687 32.2667 121.634 32.88L128.114 44H120.394ZM112.914 28.56H117.154C118.407 28.56 119.34 28.2533 119.954 27.64C120.594 27.0267 120.914 26.16 120.914 25.04C120.914 23.9733 120.594 23.1333 119.954 22.52C119.34 21.9067 118.407 21.6 117.154 21.6H112.914V28.56ZM157.288 44H150.448L139.008 26.68V44H132.168V15.92H139.008L150.448 33.32V15.92H157.288V44ZM179.726 39.04H169.246L167.566 44H160.406L170.566 15.92H178.486L188.646 44H181.406L179.726 39.04ZM177.966 33.76L174.486 23.48L171.046 33.76H177.966ZM198.578 38.72H207.538V44H191.738V15.92H198.578V38.72Z" fill="#39368F"/>
</svg>
